<svg xmlns="http://www.w3.org/2000/svg" xmlns:xlink="http://www.w3.org/1999/xlink" width="200" zoomAndPan="magnify" viewBox="0 0 150 37.5" height="50" preserveAspectRatio="xMidYMid meet" version="1.0"><defs><g/><clipPath id="d7986f5c25"><path d="M 0.988281 0 L 149.011719 0 L 149.011719 37.007812 L 0.988281 37.007812 Z M 0.988281 0 " clip-rule="nonzero"/></clipPath><clipPath id="d5cc686333"><path d="M 0.144531 3 L 1 3 L 1 4 L 0.144531 4 Z M 0.144531 3 " clip-rule="nonzero"/></clipPath><clipPath id="a16f76bb73"><rect x="0" width="2" y="0" height="5"/></clipPath><clipPath id="2557660b2b"><path d="M 5.207031 9.726562 L 22.757812 9.726562 L 22.757812 27.28125 L 5.207031 27.28125 Z M 5.207031 9.726562 " clip-rule="nonzero"/></clipPath><clipPath id="08800ca060"><path d="M 13.980469 9.726562 C 9.136719 9.726562 5.207031 13.65625 5.207031 18.503906 C 5.207031 23.351562 9.136719 27.28125 13.980469 27.28125 C 18.828125 27.28125 22.757812 23.351562 22.757812 18.503906 C 22.757812 13.65625 18.828125 9.726562 13.980469 9.726562 Z M 13.980469 9.726562 " clip-rule="nonzero"/></clipPath><clipPath id="0e326cfa70"><path d="M 0.207031 0.726562 L 17.757812 0.726562 L 17.757812 18.28125 L 0.207031 18.28125 Z M 0.207031 0.726562 " clip-rule="nonzero"/></clipPath><clipPath id="f3634decd9"><path d="M 8.980469 0.726562 C 4.136719 0.726562 0.207031 4.65625 0.207031 9.503906 C 0.207031 14.351562 4.136719 18.28125 8.980469 18.28125 C 13.828125 18.28125 17.757812 14.351562 17.757812 9.503906 C 17.757812 4.65625 13.828125 0.726562 8.980469 0.726562 Z M 8.980469 0.726562 " clip-rule="nonzero"/></clipPath><clipPath id="14d000287b"><rect x="0" width="18" y="0" height="19"/></clipPath><clipPath id="233ddab23b"><path d="M 28.644531 9.726562 L 46.195312 9.726562 L 46.195312 27.28125 L 28.644531 27.28125 Z M 28.644531 9.726562 " clip-rule="nonzero"/></clipPath><clipPath id="e32eb65b7c"><path d="M 37.421875 9.726562 C 32.574219 9.726562 28.644531 13.65625 28.644531 18.503906 C 28.644531 23.351562 32.574219 27.28125 37.421875 27.28125 C 42.269531 27.28125 46.195312 23.351562 46.195312 18.503906 C 46.195312 13.65625 42.269531 9.726562 37.421875 9.726562 Z M 37.421875 9.726562 " clip-rule="nonzero"/></clipPath><clipPath id="c7cf4594c5"><path d="M 0.644531 0.726562 L 18.195312 0.726562 L 18.195312 18.28125 L 0.644531 18.28125 Z M 0.644531 0.726562 " clip-rule="nonzero"/></clipPath><clipPath id="961a70e4ed"><path d="M 9.421875 0.726562 C 4.574219 0.726562 0.644531 4.65625 0.644531 9.503906 C 0.644531 14.351562 4.574219 18.28125 9.421875 18.28125 C 14.269531 18.28125 18.195312 14.351562 18.195312 9.503906 C 18.195312 4.65625 14.269531 0.726562 9.421875 0.726562 Z M 9.421875 0.726562 " clip-rule="nonzero"/></clipPath><clipPath id="aa0c1498c5"><rect x="0" width="19" y="0" height="19"/></clipPath><clipPath id="4ef088a141"><path d="M 11.09375 9.726562 L 28.644531 9.726562 L 28.644531 27.28125 L 11.09375 27.28125 Z M 11.09375 9.726562 " clip-rule="nonzero"/></clipPath><clipPath id="bb12462091"><path d="M 19.867188 9.726562 C 15.023438 9.726562 11.09375 13.65625 11.09375 18.503906 C 11.09375 23.351562 15.023438 27.28125 19.867188 27.28125 C 24.714844 27.28125 28.644531 23.351562 28.644531 18.503906 C 28.644531 13.65625 24.714844 9.726562 19.867188 9.726562 Z M 19.867188 9.726562 " clip-rule="nonzero"/></clipPath><clipPath id="a3ae622824"><path d="M 0.09375 0.726562 L 17.644531 0.726562 L 17.644531 18.28125 L 0.09375 18.28125 Z M 0.09375 0.726562 " clip-rule="nonzero"/></clipPath><clipPath id="74608fa4f1"><path d="M 8.867188 0.726562 C 4.023438 0.726562 0.09375 4.65625 0.09375 9.503906 C 0.09375 14.351562 4.023438 18.28125 8.867188 18.28125 C 13.714844 18.28125 17.644531 14.351562 17.644531 9.503906 C 17.644531 4.65625 13.714844 0.726562 8.867188 0.726562 Z M 8.867188 0.726562 " clip-rule="nonzero"/></clipPath><linearGradient x1="0.00000051815" gradientTransform="matrix(0.0685638, 0, 0, 0.0685638, 0.092481, 0.72712)" y1="128" x2="256" gradientUnits="userSpaceOnUse" y2="128" id="4ace075e81"><stop stop-opacity="1" stop-color="rgb(32.548523%, 78.819275%, 93.328857%)" offset="0"/><stop stop-opacity="1" stop-color="rgb(32.565308%, 78.556824%, 93.247986%)" offset="0.00390625"/><stop stop-opacity="1" stop-color="rgb(32.583618%, 78.295898%, 93.167114%)" offset="0.0078125"/><stop stop-opacity="1" stop-color="rgb(32.600403%, 78.033447%, 93.084717%)" offset="0.0117188"/><stop stop-opacity="1" stop-color="rgb(32.617188%, 77.770996%, 93.003845%)" offset="0.015625"/><stop stop-opacity="1" stop-color="rgb(32.633972%, 77.508545%, 92.922974%)" offset="0.0195312"/><stop stop-opacity="1" stop-color="rgb(32.650757%, 77.24762%, 92.842102%)" offset="0.0234375"/><stop stop-opacity="1" stop-color="rgb(32.667542%, 76.985168%, 92.76123%)" offset="0.0273438"/><stop stop-opacity="1" stop-color="rgb(32.684326%, 76.724243%, 92.680359%)" offset="0.03125"/><stop stop-opacity="1" stop-color="rgb(32.701111%, 76.461792%, 92.597961%)" offset="0.0351562"/><stop stop-opacity="1" stop-color="rgb(32.717896%, 76.199341%, 92.51709%)" offset="0.0390625"/><stop stop-opacity="1" stop-color="rgb(32.73468%, 75.93689%, 92.436218%)" offset="0.0429688"/><stop stop-opacity="1" stop-color="rgb(32.751465%, 75.675964%, 92.355347%)" offset="0.046875"/><stop stop-opacity="1" stop-color="rgb(32.76825%, 75.413513%, 92.272949%)" offset="0.0507812"/><stop stop-opacity="1" stop-color="rgb(32.785034%, 75.152588%, 92.192078%)" offset="0.0546875"/><stop stop-opacity="1" stop-color="rgb(32.801819%, 74.890137%, 92.111206%)" offset="0.0585938"/><stop stop-opacity="1" stop-color="rgb(32.818604%, 74.627686%, 92.030334%)" offset="0.0625"/><stop stop-opacity="1" stop-color="rgb(32.835388%, 74.365234%, 91.949463%)" offset="0.0664062"/><stop stop-opacity="1" stop-color="rgb(32.852173%, 74.104309%, 91.868591%)" offset="0.0703125"/><stop stop-opacity="1" stop-color="rgb(32.868958%, 73.841858%, 91.786194%)" offset="0.0742188"/><stop stop-opacity="1" stop-color="rgb(32.885742%, 73.580933%, 91.705322%)" offset="0.078125"/><stop stop-opacity="1" stop-color="rgb(32.902527%, 73.318481%, 91.624451%)" offset="0.0820312"/><stop stop-opacity="1" stop-color="rgb(32.919312%, 73.05603%, 91.543579%)" offset="0.0859375"/><stop stop-opacity="1" stop-color="rgb(32.936096%, 72.793579%, 91.462708%)" offset="0.0898438"/><stop stop-opacity="1" stop-color="rgb(32.952881%, 72.532654%, 91.381836%)" offset="0.09375"/><stop stop-opacity="1" stop-color="rgb(32.969666%, 72.270203%, 91.299438%)" offset="0.0976562"/><stop stop-opacity="1" stop-color="rgb(32.98645%, 72.007751%, 91.218567%)" offset="0.101562"/><stop stop-opacity="1" stop-color="rgb(33.003235%, 71.7453%, 91.137695%)" offset="0.105469"/><stop stop-opacity="1" stop-color="rgb(33.02002%, 71.484375%, 91.056824%)" offset="0.109375"/><stop stop-opacity="1" stop-color="rgb(33.036804%, 71.221924%, 90.974426%)" offset="0.113281"/><stop stop-opacity="1" stop-color="rgb(33.053589%, 70.960999%, 90.893555%)" offset="0.117188"/><stop stop-opacity="1" stop-color="rgb(33.070374%, 70.698547%, 90.812683%)" offset="0.121094"/><stop stop-opacity="1" stop-color="rgb(33.088684%, 70.436096%, 90.731812%)" offset="0.125"/><stop stop-opacity="1" stop-color="rgb(33.105469%, 70.173645%, 90.65094%)" offset="0.128906"/><stop stop-opacity="1" stop-color="rgb(33.122253%, 69.91272%, 90.570068%)" offset="0.132812"/><stop stop-opacity="1" stop-color="rgb(33.139038%, 69.650269%, 90.487671%)" offset="0.136719"/><stop stop-opacity="1" stop-color="rgb(33.155823%, 69.389343%, 90.406799%)" offset="0.140625"/><stop stop-opacity="1" stop-color="rgb(33.172607%, 69.126892%, 90.325928%)" offset="0.144531"/><stop stop-opacity="1" stop-color="rgb(33.189392%, 68.864441%, 90.245056%)" offset="0.148438"/><stop stop-opacity="1" stop-color="rgb(33.206177%, 68.60199%, 90.162659%)" offset="0.152344"/><stop stop-opacity="1" stop-color="rgb(33.222961%, 68.341064%, 90.081787%)" offset="0.15625"/><stop stop-opacity="1" stop-color="rgb(33.239746%, 68.078613%, 90.000916%)" offset="0.160156"/><stop stop-opacity="1" stop-color="rgb(33.256531%, 67.817688%, 89.920044%)" offset="0.164062"/><stop stop-opacity="1" stop-color="rgb(33.273315%, 67.555237%, 89.839172%)" offset="0.167969"/><stop stop-opacity="1" stop-color="rgb(33.2901%, 67.292786%, 89.758301%)" offset="0.171875"/><stop stop-opacity="1" stop-color="rgb(33.306885%, 67.030334%, 89.675903%)" offset="0.175781"/><stop stop-opacity="1" stop-color="rgb(33.323669%, 66.769409%, 89.595032%)" offset="0.179688"/><stop stop-opacity="1" stop-color="rgb(33.340454%, 66.506958%, 89.51416%)" offset="0.183594"/><stop stop-opacity="1" stop-color="rgb(33.357239%, 66.246033%, 89.433289%)" offset="0.1875"/><stop stop-opacity="1" stop-color="rgb(33.374023%, 65.983582%, 89.350891%)" offset="0.191406"/><stop stop-opacity="1" stop-color="rgb(33.390808%, 65.72113%, 89.27002%)" offset="0.195312"/><stop stop-opacity="1" stop-color="rgb(33.407593%, 65.458679%, 89.189148%)" offset="0.199219"/><stop stop-opacity="1" stop-color="rgb(33.424377%, 65.197754%, 89.108276%)" offset="0.203125"/><stop stop-opacity="1" stop-color="rgb(33.441162%, 64.935303%, 89.027405%)" offset="0.207031"/><stop stop-opacity="1" stop-color="rgb(33.457947%, 64.674377%, 88.946533%)" offset="0.210938"/><stop stop-opacity="1" stop-color="rgb(33.474731%, 64.411926%, 88.864136%)" offset="0.214844"/><stop stop-opacity="1" stop-color="rgb(33.491516%, 64.149475%, 88.783264%)" offset="0.21875"/><stop stop-opacity="1" stop-color="rgb(33.508301%, 63.887024%, 88.702393%)" offset="0.222656"/><stop stop-opacity="1" stop-color="rgb(33.525085%, 63.626099%, 88.621521%)" offset="0.226562"/><stop stop-opacity="1" stop-color="rgb(33.54187%, 63.363647%, 88.539124%)" offset="0.230469"/><stop stop-opacity="1" stop-color="rgb(33.558655%, 63.102722%, 88.458252%)" offset="0.234375"/><stop stop-opacity="1" stop-color="rgb(33.575439%, 62.840271%, 88.37738%)" offset="0.238281"/><stop stop-opacity="1" stop-color="rgb(33.59375%, 62.57782%, 88.296509%)" offset="0.242188"/><stop stop-opacity="1" stop-color="rgb(33.610535%, 62.315369%, 88.215637%)" offset="0.246094"/><stop stop-opacity="1" stop-color="rgb(33.627319%, 62.054443%, 88.134766%)" offset="0.25"/><stop stop-opacity="1" stop-color="rgb(33.644104%, 61.791992%, 88.052368%)" offset="0.253906"/><stop stop-opacity="1" stop-color="rgb(33.660889%, 61.531067%, 87.971497%)" offset="0.257812"/><stop stop-opacity="1" stop-color="rgb(33.677673%, 61.268616%, 87.890625%)" offset="0.261719"/><stop stop-opacity="1" stop-color="rgb(33.694458%, 61.006165%, 87.809753%)" offset="0.265625"/><stop stop-opacity="1" stop-color="rgb(33.711243%, 60.743713%, 87.727356%)" offset="0.269531"/><stop stop-opacity="1" stop-color="rgb(33.728027%, 60.482788%, 87.646484%)" offset="0.273437"/><stop stop-opacity="1" stop-color="rgb(33.744812%, 60.220337%, 87.565613%)" offset="0.277344"/><stop stop-opacity="1" stop-color="rgb(33.761597%, 59.957886%, 87.484741%)" offset="0.28125"/><stop stop-opacity="1" stop-color="rgb(33.778381%, 59.695435%, 87.40387%)" offset="0.285156"/><stop stop-opacity="1" stop-color="rgb(33.795166%, 59.434509%, 87.322998%)" offset="0.289063"/><stop stop-opacity="1" stop-color="rgb(33.811951%, 59.172058%, 87.240601%)" offset="0.292969"/><stop stop-opacity="1" stop-color="rgb(33.828735%, 58.911133%, 87.159729%)" offset="0.296875"/><stop stop-opacity="1" stop-color="rgb(33.84552%, 58.648682%, 87.078857%)" offset="0.300781"/><stop stop-opacity="1" stop-color="rgb(33.862305%, 58.38623%, 86.997986%)" offset="0.304688"/><stop stop-opacity="1" stop-color="rgb(33.879089%, 58.123779%, 86.917114%)" offset="0.308594"/><stop stop-opacity="1" stop-color="rgb(33.895874%, 57.862854%, 86.836243%)" offset="0.3125"/><stop stop-opacity="1" stop-color="rgb(33.912659%, 57.600403%, 86.753845%)" offset="0.316406"/><stop stop-opacity="1" stop-color="rgb(33.929443%, 57.339478%, 86.672974%)" offset="0.320312"/><stop stop-opacity="1" stop-color="rgb(33.946228%, 57.077026%, 86.592102%)" offset="0.324219"/><stop stop-opacity="1" stop-color="rgb(33.963013%, 56.814575%, 86.51123%)" offset="0.328125"/><stop stop-opacity="1" stop-color="rgb(33.979797%, 56.552124%, 86.428833%)" offset="0.332031"/><stop stop-opacity="1" stop-color="rgb(33.996582%, 56.291199%, 86.347961%)" offset="0.335937"/><stop stop-opacity="1" stop-color="rgb(34.013367%, 56.028748%, 86.26709%)" offset="0.339844"/><stop stop-opacity="1" stop-color="rgb(34.030151%, 55.767822%, 86.186218%)" offset="0.34375"/><stop stop-opacity="1" stop-color="rgb(34.046936%, 55.505371%, 86.105347%)" offset="0.347656"/><stop stop-opacity="1" stop-color="rgb(34.063721%, 55.24292%, 86.024475%)" offset="0.351563"/><stop stop-opacity="1" stop-color="rgb(34.080505%, 54.980469%, 85.942078%)" offset="0.355469"/><stop stop-opacity="1" stop-color="rgb(34.098816%, 54.719543%, 85.861206%)" offset="0.359375"/><stop stop-opacity="1" stop-color="rgb(34.115601%, 54.457092%, 85.780334%)" offset="0.363281"/><stop stop-opacity="1" stop-color="rgb(34.132385%, 54.196167%, 85.699463%)" offset="0.367188"/><stop stop-opacity="1" stop-color="rgb(34.14917%, 53.933716%, 85.617065%)" offset="0.371094"/><stop stop-opacity="1" stop-color="rgb(34.165955%, 53.671265%, 85.536194%)" offset="0.375"/><stop stop-opacity="1" stop-color="rgb(34.182739%, 53.408813%, 85.455322%)" offset="0.378906"/><stop stop-opacity="1" stop-color="rgb(34.199524%, 53.147888%, 85.374451%)" offset="0.382812"/><stop stop-opacity="1" stop-color="rgb(34.216309%, 52.885437%, 85.293579%)" offset="0.386719"/><stop stop-opacity="1" stop-color="rgb(34.233093%, 52.624512%, 85.212708%)" offset="0.390625"/><stop stop-opacity="1" stop-color="rgb(34.249878%, 52.362061%, 85.13031%)" offset="0.394531"/><stop stop-opacity="1" stop-color="rgb(34.266663%, 52.099609%, 85.049438%)" offset="0.398437"/><stop stop-opacity="1" stop-color="rgb(34.283447%, 51.837158%, 84.968567%)" offset="0.402344"/><stop stop-opacity="1" stop-color="rgb(34.300232%, 51.576233%, 84.887695%)" offset="0.40625"/><stop stop-opacity="1" stop-color="rgb(34.317017%, 51.313782%, 84.805298%)" offset="0.410156"/><stop stop-opacity="1" stop-color="rgb(34.333801%, 51.052856%, 84.724426%)" offset="0.414063"/><stop stop-opacity="1" stop-color="rgb(34.350586%, 50.790405%, 84.643555%)" offset="0.417969"/><stop stop-opacity="1" stop-color="rgb(34.367371%, 50.527954%, 84.562683%)" offset="0.421875"/><stop stop-opacity="1" stop-color="rgb(34.384155%, 50.265503%, 84.481812%)" offset="0.425781"/><stop stop-opacity="1" stop-color="rgb(34.40094%, 50.004578%, 84.40094%)" offset="0.429688"/><stop stop-opacity="1" stop-color="rgb(34.417725%, 49.742126%, 84.318542%)" offset="0.433594"/><stop stop-opacity="1" stop-color="rgb(34.434509%, 49.481201%, 84.237671%)" offset="0.4375"/><stop stop-opacity="1" stop-color="rgb(34.451294%, 49.21875%, 84.156799%)" offset="0.441406"/><stop stop-opacity="1" stop-color="rgb(34.468079%, 48.956299%, 84.075928%)" offset="0.445312"/><stop stop-opacity="1" stop-color="rgb(34.484863%, 48.693848%, 83.99353%)" offset="0.449219"/><stop stop-opacity="1" stop-color="rgb(34.501648%, 48.432922%, 83.912659%)" offset="0.453125"/><stop stop-opacity="1" stop-color="rgb(34.518433%, 48.170471%, 83.831787%)" offset="0.457031"/><stop stop-opacity="1" stop-color="rgb(34.535217%, 47.90802%, 83.750916%)" offset="0.460937"/><stop stop-opacity="1" stop-color="rgb(34.552002%, 47.645569%, 83.670044%)" offset="0.464844"/><stop stop-opacity="1" stop-color="rgb(34.570312%, 47.384644%, 83.589172%)" offset="0.46875"/><stop stop-opacity="1" stop-color="rgb(34.587097%, 47.122192%, 83.506775%)" offset="0.472656"/><stop stop-opacity="1" stop-color="rgb(34.603882%, 46.861267%, 83.425903%)" offset="0.476563"/><stop stop-opacity="1" stop-color="rgb(34.620667%, 46.598816%, 83.345032%)" offset="0.480469"/><stop stop-opacity="1" stop-color="rgb(34.637451%, 46.336365%, 83.26416%)" offset="0.484375"/><stop stop-opacity="1" stop-color="rgb(34.654236%, 46.073914%, 83.181763%)" offset="0.488281"/><stop stop-opacity="1" stop-color="rgb(34.671021%, 45.812988%, 83.100891%)" offset="0.492188"/><stop stop-opacity="1" stop-color="rgb(34.687805%, 45.550537%, 83.02002%)" offset="0.496094"/><stop stop-opacity="1" stop-color="rgb(34.70459%, 45.289612%, 82.939148%)" offset="0.5"/><stop stop-opacity="1" stop-color="rgb(34.721375%, 45.027161%, 82.858276%)" offset="0.503906"/><stop stop-opacity="1" stop-color="rgb(34.738159%, 44.764709%, 82.777405%)" offset="0.507812"/><stop stop-opacity="1" stop-color="rgb(34.754944%, 44.502258%, 82.695007%)" offset="0.511719"/><stop stop-opacity="1" stop-color="rgb(34.771729%, 44.241333%, 82.614136%)" offset="0.515625"/><stop stop-opacity="1" stop-color="rgb(34.788513%, 43.978882%, 82.533264%)" offset="0.519531"/><stop stop-opacity="1" stop-color="rgb(34.805298%, 43.717957%, 82.452393%)" offset="0.523438"/><stop stop-opacity="1" stop-color="rgb(34.822083%, 43.455505%, 82.369995%)" offset="0.527344"/><stop stop-opacity="1" stop-color="rgb(34.838867%, 43.193054%, 82.289124%)" offset="0.53125"/><stop stop-opacity="1" stop-color="rgb(34.855652%, 42.930603%, 82.208252%)" offset="0.535156"/><stop stop-opacity="1" stop-color="rgb(34.872437%, 42.669678%, 82.12738%)" offset="0.539062"/><stop stop-opacity="1" stop-color="rgb(34.889221%, 42.407227%, 82.046509%)" offset="0.542969"/><stop stop-opacity="1" stop-color="rgb(34.906006%, 42.146301%, 81.965637%)" offset="0.546875"/><stop stop-opacity="1" stop-color="rgb(34.922791%, 41.88385%, 81.88324%)" offset="0.550781"/><stop stop-opacity="1" stop-color="rgb(34.939575%, 41.621399%, 81.802368%)" offset="0.554687"/><stop stop-opacity="1" stop-color="rgb(34.95636%, 41.358948%, 81.721497%)" offset="0.558594"/><stop stop-opacity="1" stop-color="rgb(34.973145%, 41.098022%, 81.640625%)" offset="0.5625"/><stop stop-opacity="1" stop-color="rgb(34.989929%, 40.835571%, 81.559753%)" offset="0.566406"/><stop stop-opacity="1" stop-color="rgb(35.006714%, 40.574646%, 81.478882%)" offset="0.570313"/><stop stop-opacity="1" stop-color="rgb(35.023499%, 40.312195%, 81.396484%)" offset="0.574219"/><stop stop-opacity="1" stop-color="rgb(35.040283%, 40.049744%, 81.315613%)" offset="0.578125"/><stop stop-opacity="1" stop-color="rgb(35.057068%, 39.787292%, 81.234741%)" offset="0.582031"/><stop stop-opacity="1" stop-color="rgb(35.075378%, 39.526367%, 81.15387%)" offset="0.585938"/><stop stop-opacity="1" stop-color="rgb(35.092163%, 39.263916%, 81.071472%)" offset="0.589844"/><stop stop-opacity="1" stop-color="rgb(35.108948%, 39.002991%, 80.990601%)" offset="0.59375"/><stop stop-opacity="1" stop-color="rgb(35.125732%, 38.74054%, 80.909729%)" offset="0.597656"/><stop stop-opacity="1" stop-color="rgb(35.142517%, 38.478088%, 80.828857%)" offset="0.601562"/><stop stop-opacity="1" stop-color="rgb(35.159302%, 38.215637%, 80.747986%)" offset="0.605469"/><stop stop-opacity="1" stop-color="rgb(35.176086%, 37.954712%, 80.667114%)" offset="0.609375"/><stop stop-opacity="1" stop-color="rgb(35.192871%, 37.692261%, 80.584717%)" offset="0.613281"/><stop stop-opacity="1" stop-color="rgb(35.209656%, 37.431335%, 80.503845%)" offset="0.617188"/><stop stop-opacity="1" stop-color="rgb(35.22644%, 37.168884%, 80.422974%)" offset="0.621094"/><stop stop-opacity="1" stop-color="rgb(35.243225%, 36.906433%, 80.342102%)" offset="0.625"/><stop stop-opacity="1" stop-color="rgb(35.26001%, 36.643982%, 80.259705%)" offset="0.628906"/><stop stop-opacity="1" stop-color="rgb(35.276794%, 36.383057%, 80.178833%)" offset="0.632812"/><stop stop-opacity="1" stop-color="rgb(35.293579%, 36.120605%, 80.097961%)" offset="0.636719"/><stop stop-opacity="1" stop-color="rgb(35.310364%, 35.85968%, 80.01709%)" offset="0.640625"/><stop stop-opacity="1" stop-color="rgb(35.327148%, 35.597229%, 79.936218%)" offset="0.644531"/><stop stop-opacity="1" stop-color="rgb(35.343933%, 35.334778%, 79.855347%)" offset="0.648438"/><stop stop-opacity="1" stop-color="rgb(35.360718%, 35.072327%, 79.772949%)" offset="0.652344"/><stop stop-opacity="1" stop-color="rgb(35.377502%, 34.811401%, 79.692078%)" offset="0.65625"/><stop stop-opacity="1" stop-color="rgb(35.394287%, 34.54895%, 79.611206%)" offset="0.660156"/><stop stop-opacity="1" stop-color="rgb(35.411072%, 34.286499%, 79.530334%)" offset="0.664062"/><stop stop-opacity="1" stop-color="rgb(35.427856%, 34.024048%, 79.447937%)" offset="0.667969"/><stop stop-opacity="1" stop-color="rgb(35.444641%, 33.763123%, 79.367065%)" offset="0.671875"/><stop stop-opacity="1" stop-color="rgb(35.461426%, 33.500671%, 79.286194%)" offset="0.675781"/><stop stop-opacity="1" stop-color="rgb(35.47821%, 33.239746%, 79.205322%)" offset="0.679687"/><stop stop-opacity="1" stop-color="rgb(35.494995%, 32.977295%, 79.124451%)" offset="0.683594"/><stop stop-opacity="1" stop-color="rgb(35.51178%, 32.714844%, 79.043579%)" offset="0.6875"/><stop stop-opacity="1" stop-color="rgb(35.528564%, 32.452393%, 78.961182%)" offset="0.691406"/><stop stop-opacity="1" stop-color="rgb(35.545349%, 32.191467%, 78.88031%)" offset="0.695313"/><stop stop-opacity="1" stop-color="rgb(35.562134%, 31.929016%, 78.799438%)" offset="0.699219"/><stop stop-opacity="1" stop-color="rgb(35.580444%, 31.668091%, 78.718567%)" offset="0.703125"/><stop stop-opacity="1" stop-color="rgb(35.597229%, 31.40564%, 78.636169%)" offset="0.707031"/><stop stop-opacity="1" stop-color="rgb(35.614014%, 31.143188%, 78.555298%)" offset="0.710938"/><stop stop-opacity="1" stop-color="rgb(35.630798%, 30.880737%, 78.474426%)" offset="0.714844"/><stop stop-opacity="1" stop-color="rgb(35.647583%, 30.619812%, 78.393555%)" offset="0.71875"/><stop stop-opacity="1" stop-color="rgb(35.664368%, 30.357361%, 78.312683%)" offset="0.722656"/><stop stop-opacity="1" stop-color="rgb(35.681152%, 30.096436%, 78.231812%)" offset="0.726562"/><stop stop-opacity="1" stop-color="rgb(35.697937%, 29.833984%, 78.149414%)" offset="0.730469"/><stop stop-opacity="1" stop-color="rgb(35.714722%, 29.571533%, 78.068542%)" offset="0.734375"/><stop stop-opacity="1" stop-color="rgb(35.731506%, 29.309082%, 77.987671%)" offset="0.738281"/><stop stop-opacity="1" stop-color="rgb(35.748291%, 29.048157%, 77.906799%)" offset="0.742188"/><stop stop-opacity="1" stop-color="rgb(35.765076%, 28.785706%, 77.824402%)" offset="0.746094"/><stop stop-opacity="1" stop-color="rgb(35.78186%, 28.52478%, 77.74353%)" offset="0.75"/><stop stop-opacity="1" stop-color="rgb(35.798645%, 28.262329%, 77.662659%)" offset="0.753906"/><stop stop-opacity="1" stop-color="rgb(35.81543%, 27.999878%, 77.581787%)" offset="0.757812"/><stop stop-opacity="1" stop-color="rgb(35.832214%, 27.737427%, 77.500916%)" offset="0.761719"/><stop stop-opacity="1" stop-color="rgb(35.848999%, 27.476501%, 77.420044%)" offset="0.765625"/><stop stop-opacity="1" stop-color="rgb(35.865784%, 27.21405%, 77.337646%)" offset="0.769531"/><stop stop-opacity="1" stop-color="rgb(35.882568%, 26.953125%, 77.256775%)" offset="0.773438"/><stop stop-opacity="1" stop-color="rgb(35.899353%, 26.690674%, 77.175903%)" offset="0.777344"/><stop stop-opacity="1" stop-color="rgb(35.916138%, 26.428223%, 77.095032%)" offset="0.78125"/><stop stop-opacity="1" stop-color="rgb(35.932922%, 26.165771%, 77.012634%)" offset="0.785156"/><stop stop-opacity="1" stop-color="rgb(35.949707%, 25.904846%, 76.931763%)" offset="0.789062"/><stop stop-opacity="1" stop-color="rgb(35.966492%, 25.642395%, 76.850891%)" offset="0.792969"/><stop stop-opacity="1" stop-color="rgb(35.983276%, 25.38147%, 76.77002%)" offset="0.796875"/><stop stop-opacity="1" stop-color="rgb(36.000061%, 25.119019%, 76.689148%)" offset="0.800781"/><stop stop-opacity="1" stop-color="rgb(36.016846%, 24.856567%, 76.608276%)" offset="0.804687"/><stop stop-opacity="1" stop-color="rgb(36.03363%, 24.594116%, 76.525879%)" offset="0.808594"/><stop stop-opacity="1" stop-color="rgb(36.050415%, 24.333191%, 76.445007%)" offset="0.8125"/><stop stop-opacity="1" stop-color="rgb(36.0672%, 24.07074%, 76.364136%)" offset="0.816406"/><stop stop-opacity="1" stop-color="rgb(36.08551%, 23.809814%, 76.283264%)" offset="0.820313"/><stop stop-opacity="1" stop-color="rgb(36.102295%, 23.547363%, 76.202393%)" offset="0.824219"/><stop stop-opacity="1" stop-color="rgb(36.11908%, 23.284912%, 76.121521%)" offset="0.828125"/><stop stop-opacity="1" stop-color="rgb(36.135864%, 23.022461%, 76.039124%)" offset="0.832031"/><stop stop-opacity="1" stop-color="rgb(36.152649%, 22.761536%, 75.958252%)" offset="0.835938"/><stop stop-opacity="1" stop-color="rgb(36.169434%, 22.499084%, 75.87738%)" offset="0.839844"/><stop stop-opacity="1" stop-color="rgb(36.186218%, 22.236633%, 75.796509%)" offset="0.84375"/><stop stop-opacity="1" stop-color="rgb(36.203003%, 21.974182%, 75.714111%)" offset="0.847656"/><stop stop-opacity="1" stop-color="rgb(36.219788%, 21.713257%, 75.63324%)" offset="0.851562"/><stop stop-opacity="1" stop-color="rgb(36.236572%, 21.450806%, 75.552368%)" offset="0.855469"/><stop stop-opacity="1" stop-color="rgb(36.253357%, 21.18988%, 75.471497%)" offset="0.859375"/><stop stop-opacity="1" stop-color="rgb(36.270142%, 20.927429%, 75.390625%)" offset="0.863281"/><stop stop-opacity="1" stop-color="rgb(36.286926%, 20.664978%, 75.309753%)" offset="0.867188"/><stop stop-opacity="1" stop-color="rgb(36.303711%, 20.402527%, 75.227356%)" offset="0.871094"/><stop stop-opacity="1" stop-color="rgb(36.320496%, 20.141602%, 75.146484%)" offset="0.875"/><stop stop-opacity="1" stop-color="rgb(36.33728%, 19.87915%, 75.065613%)" offset="0.878906"/><stop stop-opacity="1" stop-color="rgb(36.354065%, 19.618225%, 74.984741%)" offset="0.882812"/><stop stop-opacity="1" stop-color="rgb(36.37085%, 19.355774%, 74.902344%)" offset="0.886719"/><stop stop-opacity="1" stop-color="rgb(36.387634%, 19.093323%, 74.821472%)" offset="0.890625"/><stop stop-opacity="1" stop-color="rgb(36.404419%, 18.830872%, 74.740601%)" offset="0.894531"/><stop stop-opacity="1" stop-color="rgb(36.421204%, 18.569946%, 74.659729%)" offset="0.898438"/><stop stop-opacity="1" stop-color="rgb(36.437988%, 18.307495%, 74.578857%)" offset="0.902344"/><stop stop-opacity="1" stop-color="rgb(36.454773%, 18.04657%, 74.497986%)" offset="0.90625"/><stop stop-opacity="1" stop-color="rgb(36.471558%, 17.784119%, 74.415588%)" offset="0.910156"/><stop stop-opacity="1" stop-color="rgb(36.488342%, 17.521667%, 74.334717%)" offset="0.914062"/><stop stop-opacity="1" stop-color="rgb(36.505127%, 17.259216%, 74.253845%)" offset="0.917969"/><stop stop-opacity="1" stop-color="rgb(36.521912%, 16.998291%, 74.172974%)" offset="0.921875"/><stop stop-opacity="1" stop-color="rgb(36.538696%, 16.73584%, 74.090576%)" offset="0.925781"/><stop stop-opacity="1" stop-color="rgb(36.555481%, 16.474915%, 74.009705%)" offset="0.929687"/><stop stop-opacity="1" stop-color="rgb(36.572266%, 16.212463%, 73.928833%)" offset="0.933594"/><stop stop-opacity="1" stop-color="rgb(36.590576%, 15.950012%, 73.847961%)" offset="0.9375"/><stop stop-opacity="1" stop-color="rgb(36.607361%, 15.687561%, 73.76709%)" offset="0.941406"/><stop stop-opacity="1" stop-color="rgb(36.624146%, 15.426636%, 73.686218%)" offset="0.945313"/><stop stop-opacity="1" stop-color="rgb(36.64093%, 15.164185%, 73.603821%)" offset="0.949219"/><stop stop-opacity="1" stop-color="rgb(36.657715%, 14.903259%, 73.522949%)" offset="0.953125"/><stop stop-opacity="1" stop-color="rgb(36.6745%, 14.640808%, 73.442078%)" offset="0.957031"/><stop stop-opacity="1" stop-color="rgb(36.691284%, 14.378357%, 73.361206%)" offset="0.960938"/><stop stop-opacity="1" stop-color="rgb(36.708069%, 14.115906%, 73.278809%)" offset="0.964844"/><stop stop-opacity="1" stop-color="rgb(36.724854%, 13.85498%, 73.197937%)" offset="0.96875"/><stop stop-opacity="1" stop-color="rgb(36.741638%, 13.592529%, 73.117065%)" offset="0.972656"/><stop stop-opacity="1" stop-color="rgb(36.758423%, 13.331604%, 73.036194%)" offset="0.976562"/><stop stop-opacity="1" stop-color="rgb(36.775208%, 13.069153%, 72.955322%)" offset="0.980469"/><stop stop-opacity="1" stop-color="rgb(36.791992%, 12.806702%, 72.874451%)" offset="0.984375"/><stop stop-opacity="1" stop-color="rgb(36.808777%, 12.54425%, 72.792053%)" offset="0.988281"/><stop stop-opacity="1" stop-color="rgb(36.825562%, 12.283325%, 72.711182%)" offset="0.992188"/><stop stop-opacity="1" stop-color="rgb(36.842346%, 12.020874%, 72.63031%)" offset="0.996094"/><stop stop-opacity="1" stop-color="rgb(36.859131%, 11.759949%, 72.549438%)" offset="1"/></linearGradient><clipPath id="bb309a94ba"><rect x="0" width="18" y="0" height="19"/></clipPath><clipPath id="d9b6834a8c"><rect x="0" width="95" y="0" height="14"/></clipPath></defs><g clip-path="url(#d7986f5c25)"><path fill="#ffffff" d="M 0.988281 0 L 149.011719 0 L 149.011719 37.007812 L 0.988281 37.007812 Z M 0.988281 0 " fill-opacity="1" fill-rule="nonzero"/><path fill="#ffffff" d="M 0.988281 0 L 149.011719 0 L 149.011719 37.007812 L 0.988281 37.007812 Z M 0.988281 0 " fill-opacity="1" fill-rule="nonzero"/></g><g transform="matrix(1, 0, 0, 1, 61, 13)"><g clip-path="url(#a16f76bb73)"><g clip-path="url(#d5cc686333)"><g fill="#5e1eb9" fill-opacity="1"><g transform="translate(0.33753, 3.56205)"><g><path d="M 0.3125 0.015625 C 0.269531 0.015625 0.234375 0.00390625 0.203125 -0.015625 C 0.179688 -0.046875 0.171875 -0.0820312 0.171875 -0.125 C 0.171875 -0.164062 0.179688 -0.195312 0.203125 -0.21875 C 0.234375 -0.25 0.269531 -0.265625 0.3125 -0.265625 C 0.363281 -0.265625 0.398438 -0.25 0.421875 -0.21875 C 0.453125 -0.195312 0.46875 -0.164062 0.46875 -0.125 C 0.46875 -0.0820312 0.453125 -0.046875 0.421875 -0.015625 C 0.398438 0.00390625 0.363281 0.015625 0.3125 0.015625 Z M 0.3125 0.015625 "/></g></g></g></g></g></g><g clip-path="url(#2557660b2b)"><g clip-path="url(#08800ca060)"><g transform="matrix(1, 0, 0, 1, 5, 9)"><g clip-path="url(#14d000287b)"><g clip-path="url(#0e326cfa70)"><g clip-path="url(#f3634decd9)"><path fill="#53c9ee" d="M 0.207031 0.726562 L 17.757812 0.726562 L 17.757812 18.28125 L 0.207031 18.28125 Z M 0.207031 0.726562 " fill-opacity="1" fill-rule="nonzero"/></g></g></g></g></g></g><g clip-path="url(#233ddab23b)"><g clip-path="url(#e32eb65b7c)"><g transform="matrix(1, 0, 0, 1, 28, 9)"><g clip-path="url(#aa0c1498c5)"><g clip-path="url(#c7cf4594c5)"><g clip-path="url(#961a70e4ed)"><path fill="#5e1eb9" d="M 0.644531 0.726562 L 18.195312 0.726562 L 18.195312 18.28125 L 0.644531 18.28125 Z M 0.644531 0.726562 " fill-opacity="1" fill-rule="nonzero"/></g></g></g></g></g></g><g clip-path="url(#4ef088a141)"><g clip-path="url(#bb12462091)"><g transform="matrix(1, 0, 0, 1, 11, 9)"><g clip-path="url(#bb309a94ba)"><g clip-path="url(#a3ae622824)"><g clip-path="url(#74608fa4f1)"><path fill="url(#4ace075e81)" d="M 0.09375 0.726562 L 0.09375 18.28125 L 17.644531 18.28125 L 17.644531 0.726562 Z M 0.09375 0.726562 " fill-rule="nonzero"/></g></g></g></g></g></g><g transform="matrix(1, 0, 0, 1, 48, 11)"><g clip-path="url(#d9b6834a8c)"><g fill="#5e1eb9" fill-opacity="1"><g transform="translate(0.576114, 10.173141)"><g><path d="M 4.03125 -5.765625 C 4.582031 -5.765625 5.078125 -5.640625 5.515625 -5.390625 C 5.953125 -5.148438 6.296875 -4.8125 6.546875 -4.375 C 6.796875 -3.9375 6.921875 -3.425781 6.921875 -2.84375 C 6.921875 -2.269531 6.796875 -1.757812 6.546875 -1.3125 C 6.296875 -0.875 5.953125 -0.53125 5.515625 -0.28125 C 5.078125 -0.0390625 4.582031 0.078125 4.03125 0.078125 C 3.644531 0.078125 3.285156 0.0078125 2.953125 -0.125 C 2.628906 -0.257812 2.359375 -0.460938 2.140625 -0.734375 L 2.140625 0 L 0.875 0 L 0.875 -7.921875 L 2.203125 -7.921875 L 2.203125 -5 C 2.429688 -5.25 2.703125 -5.4375 3.015625 -5.5625 C 3.328125 -5.695312 3.664062 -5.765625 4.03125 -5.765625 Z M 3.890625 -1.0625 C 4.378906 -1.0625 4.78125 -1.222656 5.09375 -1.546875 C 5.414062 -1.878906 5.578125 -2.3125 5.578125 -2.84375 C 5.578125 -3.382812 5.414062 -3.816406 5.09375 -4.140625 C 4.78125 -4.460938 4.378906 -4.625 3.890625 -4.625 C 3.566406 -4.625 3.273438 -4.550781 3.015625 -4.40625 C 2.765625 -4.257812 2.5625 -4.050781 2.40625 -3.78125 C 2.257812 -3.519531 2.1875 -3.207031 2.1875 -2.84375 C 2.1875 -2.488281 2.257812 -2.175781 2.40625 -1.90625 C 2.5625 -1.632812 2.765625 -1.425781 3.015625 -1.28125 C 3.273438 -1.132812 3.566406 -1.0625 3.890625 -1.0625 Z M 3.890625 -1.0625 "/></g></g></g><g fill="#5e1eb9" fill-opacity="1"><g transform="translate(7.346913, 10.173141)"><g><path d="M 0.875 -5.703125 L 2.203125 -5.703125 L 2.203125 0 L 0.875 0 Z M 1.546875 -6.640625 C 1.304688 -6.640625 1.101562 -6.710938 0.9375 -6.859375 C 0.769531 -7.015625 0.6875 -7.207031 0.6875 -7.4375 C 0.6875 -7.664062 0.769531 -7.851562 0.9375 -8 C 1.101562 -8.15625 1.304688 -8.234375 1.546875 -8.234375 C 1.785156 -8.234375 1.988281 -8.160156 2.15625 -8.015625 C 2.320312 -7.867188 2.40625 -7.6875 2.40625 -7.46875 C 2.40625 -7.238281 2.320312 -7.039062 2.15625 -6.875 C 2 -6.71875 1.796875 -6.640625 1.546875 -6.640625 Z M 1.546875 -6.640625 "/></g></g></g><g fill="#5e1eb9" fill-opacity="1"><g transform="translate(9.877954, 10.173141)"><g><path d="M 6.53125 -5.703125 L 6.53125 -0.859375 C 6.53125 1.140625 5.503906 2.140625 3.453125 2.140625 C 2.910156 2.140625 2.390625 2.070312 1.890625 1.9375 C 1.398438 1.800781 1 1.597656 0.6875 1.328125 L 1.28125 0.328125 C 1.53125 0.535156 1.84375 0.703125 2.21875 0.828125 C 2.601562 0.953125 2.992188 1.015625 3.390625 1.015625 C 4.015625 1.015625 4.472656 0.867188 4.765625 0.578125 C 5.054688 0.296875 5.203125 -0.132812 5.203125 -0.71875 L 5.203125 -1.015625 C 4.972656 -0.765625 4.691406 -0.570312 4.359375 -0.4375 C 4.035156 -0.3125 3.675781 -0.25 3.28125 -0.25 C 2.738281 -0.25 2.25 -0.363281 1.8125 -0.59375 C 1.375 -0.832031 1.03125 -1.160156 0.78125 -1.578125 C 0.53125 -1.992188 0.40625 -2.472656 0.40625 -3.015625 C 0.40625 -3.554688 0.53125 -4.035156 0.78125 -4.453125 C 1.03125 -4.867188 1.375 -5.191406 1.8125 -5.421875 C 2.25 -5.648438 2.738281 -5.765625 3.28125 -5.765625 C 3.695312 -5.765625 4.070312 -5.695312 4.40625 -5.5625 C 4.75 -5.425781 5.035156 -5.21875 5.265625 -4.9375 L 5.265625 -5.703125 Z M 3.484375 -1.390625 C 3.992188 -1.390625 4.410156 -1.539062 4.734375 -1.84375 C 5.054688 -2.144531 5.21875 -2.535156 5.21875 -3.015625 C 5.21875 -3.492188 5.054688 -3.878906 4.734375 -4.171875 C 4.410156 -4.472656 3.992188 -4.625 3.484375 -4.625 C 2.972656 -4.625 2.554688 -4.472656 2.234375 -4.171875 C 1.910156 -3.878906 1.75 -3.492188 1.75 -3.015625 C 1.75 -2.535156 1.910156 -2.144531 2.234375 -1.84375 C 2.554688 -1.539062 2.972656 -1.390625 3.484375 -1.390625 Z M 3.484375 -1.390625 "/></g></g></g><g fill="#5e1eb9" fill-opacity="1"><g transform="translate(16.734196, 10.173141)"><g/></g></g><g fill="#5e1eb9" fill-opacity="1"><g transform="translate(19.126413, 10.173141)"><g><path d="M 4.296875 -0.3125 C 4.140625 -0.1875 3.945312 -0.0859375 3.71875 -0.015625 C 3.5 0.046875 3.265625 0.078125 3.015625 0.078125 C 2.390625 0.078125 1.90625 -0.0820312 1.5625 -0.40625 C 1.226562 -0.738281 1.0625 -1.21875 1.0625 -1.84375 L 1.0625 -4.59375 L 0.125 -4.59375 L 0.125 -5.65625 L 1.0625 -5.65625 L 1.0625 -6.953125 L 2.390625 -6.953125 L 2.390625 -5.65625 L 3.921875 -5.65625 L 3.921875 -4.59375 L 2.390625 -4.59375 L 2.390625 -1.875 C 2.390625 -1.601562 2.457031 -1.394531 2.59375 -1.25 C 2.726562 -1.101562 2.925781 -1.03125 3.1875 -1.03125 C 3.476562 -1.03125 3.722656 -1.109375 3.921875 -1.265625 Z M 4.296875 -0.3125 "/></g></g></g><g fill="#5e1eb9" fill-opacity="1"><g transform="translate(23.099196, 10.173141)"><g><path d="M 0.875 -5.703125 L 2.203125 -5.703125 L 2.203125 0 L 0.875 0 Z M 1.546875 -6.640625 C 1.304688 -6.640625 1.101562 -6.710938 0.9375 -6.859375 C 0.769531 -7.015625 0.6875 -7.207031 0.6875 -7.4375 C 0.6875 -7.664062 0.769531 -7.851562 0.9375 -8 C 1.101562 -8.15625 1.304688 -8.234375 1.546875 -8.234375 C 1.785156 -8.234375 1.988281 -8.160156 2.15625 -8.015625 C 2.320312 -7.867188 2.40625 -7.6875 2.40625 -7.46875 C 2.40625 -7.238281 2.320312 -7.039062 2.15625 -6.875 C 2 -6.71875 1.796875 -6.640625 1.546875 -6.640625 Z M 1.546875 -6.640625 "/></g></g></g><g fill="#5e1eb9" fill-opacity="1"><g transform="translate(25.630238, 10.173141)"><g><path d="M 3.484375 0.078125 C 2.898438 0.078125 2.367188 -0.046875 1.890625 -0.296875 C 1.421875 -0.546875 1.054688 -0.890625 0.796875 -1.328125 C 0.535156 -1.773438 0.40625 -2.28125 0.40625 -2.84375 C 0.40625 -3.40625 0.535156 -3.90625 0.796875 -4.34375 C 1.054688 -4.789062 1.421875 -5.140625 1.890625 -5.390625 C 2.359375 -5.640625 2.890625 -5.765625 3.484375 -5.765625 C 4.046875 -5.765625 4.539062 -5.648438 4.96875 -5.421875 C 5.394531 -5.191406 5.710938 -4.863281 5.921875 -4.4375 L 4.890625 -3.84375 C 4.734375 -4.101562 4.53125 -4.296875 4.28125 -4.421875 C 4.039062 -4.554688 3.773438 -4.625 3.484375 -4.625 C 2.984375 -4.625 2.566406 -4.460938 2.234375 -4.140625 C 1.910156 -3.816406 1.75 -3.382812 1.75 -2.84375 C 1.75 -2.300781 1.910156 -1.867188 2.234375 -1.546875 C 2.554688 -1.222656 2.972656 -1.0625 3.484375 -1.0625 C 3.773438 -1.0625 4.039062 -1.128906 4.28125 -1.265625 C 4.53125 -1.398438 4.734375 -1.597656 4.890625 -1.859375 L 5.921875 -1.265625 C 5.703125 -0.835938 5.378906 -0.503906 4.953125 -0.265625 C 4.535156 -0.0351562 4.046875 0.078125 3.484375 0.078125 Z M 3.484375 0.078125 "/></g></g></g><g fill="#5e1eb9" fill-opacity="1"><g transform="translate(31.226295, 10.173141)"><g><path d="M 3.203125 -2.4375 L 2.203125 -1.5 L 2.203125 0 L 0.875 0 L 0.875 -7.921875 L 2.203125 -7.921875 L 2.203125 -3.140625 L 4.96875 -5.703125 L 6.578125 -5.703125 L 4.1875 -3.3125 L 6.796875 0 L 5.171875 0 Z M 3.203125 -2.4375 "/></g></g></g><g fill="#5e1eb9" fill-opacity="1"><g transform="translate(37.228165, 10.173141)"><g><path d="M 6.234375 -2.8125 C 6.234375 -2.71875 6.226562 -2.585938 6.21875 -2.421875 L 1.734375 -2.421875 C 1.816406 -2.003906 2.019531 -1.671875 2.34375 -1.421875 C 2.675781 -1.179688 3.085938 -1.0625 3.578125 -1.0625 C 4.210938 -1.0625 4.734375 -1.265625 5.140625 -1.671875 L 5.84375 -0.859375 C 5.59375 -0.546875 5.269531 -0.3125 4.875 -0.15625 C 4.488281 0 4.046875 0.078125 3.546875 0.078125 C 2.921875 0.078125 2.367188 -0.046875 1.890625 -0.296875 C 1.421875 -0.546875 1.054688 -0.890625 0.796875 -1.328125 C 0.535156 -1.773438 0.40625 -2.28125 0.40625 -2.84375 C 0.40625 -3.40625 0.53125 -3.90625 0.78125 -4.34375 C 1.03125 -4.789062 1.378906 -5.140625 1.828125 -5.390625 C 2.285156 -5.640625 2.789062 -5.765625 3.34375 -5.765625 C 3.90625 -5.765625 4.40625 -5.640625 4.84375 -5.390625 C 5.28125 -5.148438 5.617188 -4.804688 5.859375 -4.359375 C 6.109375 -3.910156 6.234375 -3.394531 6.234375 -2.8125 Z M 3.34375 -4.703125 C 2.914062 -4.703125 2.554688 -4.570312 2.265625 -4.3125 C 1.972656 -4.0625 1.796875 -3.726562 1.734375 -3.3125 L 4.96875 -3.3125 C 4.90625 -3.71875 4.726562 -4.050781 4.4375 -4.3125 C 4.144531 -4.570312 3.78125 -4.703125 3.34375 -4.703125 Z M 3.34375 -4.703125 "/></g></g></g><g fill="#5e1eb9" fill-opacity="1"><g transform="translate(43.315477, 10.173141)"><g><path d="M 4.296875 -0.3125 C 4.140625 -0.1875 3.945312 -0.0859375 3.71875 -0.015625 C 3.5 0.046875 3.265625 0.078125 3.015625 0.078125 C 2.390625 0.078125 1.90625 -0.0820312 1.5625 -0.40625 C 1.226562 -0.738281 1.0625 -1.21875 1.0625 -1.84375 L 1.0625 -4.59375 L 0.125 -4.59375 L 0.125 -5.65625 L 1.0625 -5.65625 L 1.0625 -6.953125 L 2.390625 -6.953125 L 2.390625 -5.65625 L 3.921875 -5.65625 L 3.921875 -4.59375 L 2.390625 -4.59375 L 2.390625 -1.875 C 2.390625 -1.601562 2.457031 -1.394531 2.59375 -1.25 C 2.726562 -1.101562 2.925781 -1.03125 3.1875 -1.03125 C 3.476562 -1.03125 3.722656 -1.109375 3.921875 -1.265625 Z M 4.296875 -0.3125 "/></g></g></g><g fill="#5e1eb9" fill-opacity="1"><g transform="translate(47.395051, 10.173141)"><g><path d="M 1.296875 0.078125 C 1.054688 0.078125 0.847656 -0.00390625 0.671875 -0.171875 C 0.503906 -0.335938 0.421875 -0.550781 0.421875 -0.8125 C 0.421875 -1.070312 0.503906 -1.285156 0.671875 -1.453125 C 0.835938 -1.617188 1.046875 -1.703125 1.296875 -1.703125 C 1.546875 -1.703125 1.753906 -1.617188 1.921875 -1.453125 C 2.085938 -1.285156 2.171875 -1.070312 2.171875 -0.8125 C 2.171875 -0.550781 2.085938 -0.335938 1.921875 -0.171875 C 1.753906 -0.00390625 1.546875 0.078125 1.296875 0.078125 Z M 1.296875 0.078125 "/></g></g></g><g fill="#5e1eb9" fill-opacity="1"><g transform="translate(49.445525, 10.173141)"><g/></g></g><g fill="#5e1eb9" fill-opacity="1"><g transform="translate(51.837742, 10.173141)"><g><path d="M 6.453125 -7.921875 L 6.453125 0 L 5.171875 0 L 5.171875 -0.734375 C 4.953125 -0.460938 4.679688 -0.257812 4.359375 -0.125 C 4.035156 0.0078125 3.675781 0.078125 3.28125 0.078125 C 2.738281 0.078125 2.25 -0.0390625 1.8125 -0.28125 C 1.375 -0.53125 1.03125 -0.875 0.78125 -1.3125 C 0.53125 -1.757812 0.40625 -2.269531 0.40625 -2.84375 C 0.40625 -3.425781 0.53125 -3.9375 0.78125 -4.375 C 1.03125 -4.8125 1.375 -5.148438 1.8125 -5.390625 C 2.25 -5.640625 2.738281 -5.765625 3.28125 -5.765625 C 3.664062 -5.765625 4.015625 -5.695312 4.328125 -5.5625 C 4.640625 -5.4375 4.90625 -5.25 5.125 -5 L 5.125 -7.921875 Z M 3.453125 -1.0625 C 3.765625 -1.0625 4.050781 -1.132812 4.3125 -1.28125 C 4.570312 -1.425781 4.773438 -1.632812 4.921875 -1.90625 C 5.066406 -2.175781 5.140625 -2.488281 5.140625 -2.84375 C 5.140625 -3.207031 5.066406 -3.519531 4.921875 -3.78125 C 4.773438 -4.050781 4.570312 -4.257812 4.3125 -4.40625 C 4.050781 -4.550781 3.765625 -4.625 3.453125 -4.625 C 3.128906 -4.625 2.835938 -4.550781 2.578125 -4.40625 C 2.328125 -4.257812 2.125 -4.050781 1.96875 -3.78125 C 1.820312 -3.519531 1.75 -3.207031 1.75 -2.84375 C 1.75 -2.488281 1.820312 -2.175781 1.96875 -1.90625 C 2.125 -1.632812 2.328125 -1.425781 2.578125 -1.28125 C 2.835938 -1.132812 3.128906 -1.0625 3.453125 -1.0625 Z M 3.453125 -1.0625 "/></g></g></g><g fill="#5e1eb9" fill-opacity="1"><g transform="translate(58.619228, 10.173141)"><g><path d="M 6.234375 -2.8125 C 6.234375 -2.71875 6.226562 -2.585938 6.21875 -2.421875 L 1.734375 -2.421875 C 1.816406 -2.003906 2.019531 -1.671875 2.34375 -1.421875 C 2.675781 -1.179688 3.085938 -1.0625 3.578125 -1.0625 C 4.210938 -1.0625 4.734375 -1.265625 5.140625 -1.671875 L 5.84375 -0.859375 C 5.59375 -0.546875 5.269531 -0.3125 4.875 -0.15625 C 4.488281 0 4.046875 0.078125 3.546875 0.078125 C 2.921875 0.078125 2.367188 -0.046875 1.890625 -0.296875 C 1.421875 -0.546875 1.054688 -0.890625 0.796875 -1.328125 C 0.535156 -1.773438 0.40625 -2.28125 0.40625 -2.84375 C 0.40625 -3.40625 0.53125 -3.90625 0.78125 -4.34375 C 1.03125 -4.789062 1.378906 -5.140625 1.828125 -5.390625 C 2.285156 -5.640625 2.789062 -5.765625 3.34375 -5.765625 C 3.90625 -5.765625 4.40625 -5.640625 4.84375 -5.390625 C 5.28125 -5.148438 5.617188 -4.804688 5.859375 -4.359375 C 6.109375 -3.910156 6.234375 -3.394531 6.234375 -2.8125 Z M 3.34375 -4.703125 C 2.914062 -4.703125 2.554688 -4.570312 2.265625 -4.3125 C 1.972656 -4.0625 1.796875 -3.726562 1.734375 -3.3125 L 4.96875 -3.3125 C 4.90625 -3.71875 4.726562 -4.050781 4.4375 -4.3125 C 4.144531 -4.570312 3.78125 -4.703125 3.34375 -4.703125 Z M 3.34375 -4.703125 "/></g></g></g><g fill="#5e1eb9" fill-opacity="1"><g transform="translate(64.70654, 10.173141)"><g><path d="M 2.640625 0.078125 C 2.171875 0.078125 1.71875 0.0195312 1.28125 -0.09375 C 0.84375 -0.21875 0.488281 -0.375 0.21875 -0.5625 L 0.734375 -1.578125 C 0.992188 -1.410156 1.300781 -1.273438 1.65625 -1.171875 C 2.019531 -1.066406 2.375 -1.015625 2.71875 -1.015625 C 3.519531 -1.015625 3.921875 -1.222656 3.921875 -1.640625 C 3.921875 -1.835938 3.816406 -1.972656 3.609375 -2.046875 C 3.410156 -2.128906 3.085938 -2.207031 2.640625 -2.28125 C 2.171875 -2.351562 1.785156 -2.4375 1.484375 -2.53125 C 1.191406 -2.625 0.9375 -2.785156 0.71875 -3.015625 C 0.5 -3.242188 0.390625 -3.566406 0.390625 -3.984375 C 0.390625 -4.523438 0.613281 -4.957031 1.0625 -5.28125 C 1.519531 -5.601562 2.132812 -5.765625 2.90625 -5.765625 C 3.289062 -5.765625 3.675781 -5.71875 4.0625 -5.625 C 4.457031 -5.539062 4.78125 -5.421875 5.03125 -5.265625 L 4.53125 -4.265625 C 4.039062 -4.546875 3.492188 -4.6875 2.890625 -4.6875 C 2.503906 -4.6875 2.207031 -4.625 2 -4.5 C 1.800781 -4.382812 1.703125 -4.234375 1.703125 -4.046875 C 1.703125 -3.828125 1.804688 -3.671875 2.015625 -3.578125 C 2.234375 -3.492188 2.570312 -3.414062 3.03125 -3.34375 C 3.488281 -3.269531 3.863281 -3.1875 4.15625 -3.09375 C 4.445312 -3 4.695312 -2.84375 4.90625 -2.625 C 5.113281 -2.40625 5.21875 -2.09375 5.21875 -1.6875 C 5.21875 -1.15625 4.984375 -0.726562 4.515625 -0.40625 C 4.054688 -0.0820312 3.429688 0.078125 2.640625 0.078125 Z M 2.640625 0.078125 "/></g></g></g><g fill="#5e1eb9" fill-opacity="1"><g transform="translate(69.651145, 10.173141)"><g><path d="M 0.875 -5.703125 L 2.203125 -5.703125 L 2.203125 0 L 0.875 0 Z M 1.546875 -6.640625 C 1.304688 -6.640625 1.101562 -6.710938 0.9375 -6.859375 C 0.769531 -7.015625 0.6875 -7.207031 0.6875 -7.4375 C 0.6875 -7.664062 0.769531 -7.851562 0.9375 -8 C 1.101562 -8.15625 1.304688 -8.234375 1.546875 -8.234375 C 1.785156 -8.234375 1.988281 -8.160156 2.15625 -8.015625 C 2.320312 -7.867188 2.40625 -7.6875 2.40625 -7.46875 C 2.40625 -7.238281 2.320312 -7.039062 2.15625 -6.875 C 2 -6.71875 1.796875 -6.640625 1.546875 -6.640625 Z M 1.546875 -6.640625 "/></g></g></g><g fill="#5e1eb9" fill-opacity="1"><g transform="translate(72.182187, 10.173141)"><g><path d="M 6.53125 -5.703125 L 6.53125 -0.859375 C 6.53125 1.140625 5.503906 2.140625 3.453125 2.140625 C 2.910156 2.140625 2.390625 2.070312 1.890625 1.9375 C 1.398438 1.800781 1 1.597656 0.6875 1.328125 L 1.28125 0.328125 C 1.53125 0.535156 1.84375 0.703125 2.21875 0.828125 C 2.601562 0.953125 2.992188 1.015625 3.390625 1.015625 C 4.015625 1.015625 4.472656 0.867188 4.765625 0.578125 C 5.054688 0.296875 5.203125 -0.132812 5.203125 -0.71875 L 5.203125 -1.015625 C 4.972656 -0.765625 4.691406 -0.570312 4.359375 -0.4375 C 4.035156 -0.3125 3.675781 -0.25 3.28125 -0.25 C 2.738281 -0.25 2.25 -0.363281 1.8125 -0.59375 C 1.375 -0.832031 1.03125 -1.160156 0.78125 -1.578125 C 0.53125 -1.992188 0.40625 -2.472656 0.40625 -3.015625 C 0.40625 -3.554688 0.53125 -4.035156 0.78125 -4.453125 C 1.03125 -4.867188 1.375 -5.191406 1.8125 -5.421875 C 2.25 -5.648438 2.738281 -5.765625 3.28125 -5.765625 C 3.695312 -5.765625 4.070312 -5.695312 4.40625 -5.5625 C 4.75 -5.425781 5.035156 -5.21875 5.265625 -4.9375 L 5.265625 -5.703125 Z M 3.484375 -1.390625 C 3.992188 -1.390625 4.410156 -1.539062 4.734375 -1.84375 C 5.054688 -2.144531 5.21875 -2.535156 5.21875 -3.015625 C 5.21875 -3.492188 5.054688 -3.878906 4.734375 -4.171875 C 4.410156 -4.472656 3.992188 -4.625 3.484375 -4.625 C 2.972656 -4.625 2.554688 -4.472656 2.234375 -4.171875 C 1.910156 -3.878906 1.75 -3.492188 1.75 -3.015625 C 1.75 -2.535156 1.910156 -2.144531 2.234375 -1.84375 C 2.554688 -1.539062 2.972656 -1.390625 3.484375 -1.390625 Z M 3.484375 -1.390625 "/></g></g></g><g fill="#5e1eb9" fill-opacity="1"><g transform="translate(79.038428, 10.173141)"><g><path d="M 4.109375 -5.765625 C 4.828125 -5.765625 5.398438 -5.550781 5.828125 -5.125 C 6.265625 -4.707031 6.484375 -4.085938 6.484375 -3.265625 L 6.484375 0 L 5.15625 0 L 5.15625 -3.09375 C 5.15625 -3.59375 5.035156 -3.96875 4.796875 -4.21875 C 4.566406 -4.46875 4.234375 -4.59375 3.796875 -4.59375 C 3.304688 -4.59375 2.914062 -4.445312 2.625 -4.15625 C 2.34375 -3.863281 2.203125 -3.4375 2.203125 -2.875 L 2.203125 0 L 0.875 0 L 0.875 -5.703125 L 2.140625 -5.703125 L 2.140625 -4.96875 C 2.359375 -5.226562 2.632812 -5.425781 2.96875 -5.5625 C 3.3125 -5.695312 3.691406 -5.765625 4.109375 -5.765625 Z M 4.109375 -5.765625 "/></g></g></g><g fill="#5e1eb9" fill-opacity="1"><g transform="translate(85.798554, 10.173141)"><g><path d="M 2.640625 0.078125 C 2.171875 0.078125 1.71875 0.0195312 1.28125 -0.09375 C 0.84375 -0.21875 0.488281 -0.375 0.21875 -0.5625 L 0.734375 -1.578125 C 0.992188 -1.410156 1.300781 -1.273438 1.65625 -1.171875 C 2.019531 -1.066406 2.375 -1.015625 2.71875 -1.015625 C 3.519531 -1.015625 3.921875 -1.222656 3.921875 -1.640625 C 3.921875 -1.835938 3.816406 -1.972656 3.609375 -2.046875 C 3.410156 -2.128906 3.085938 -2.207031 2.640625 -2.28125 C 2.171875 -2.351562 1.785156 -2.4375 1.484375 -2.53125 C 1.191406 -2.625 0.9375 -2.785156 0.71875 -3.015625 C 0.5 -3.242188 0.390625 -3.566406 0.390625 -3.984375 C 0.390625 -4.523438 0.613281 -4.957031 1.0625 -5.28125 C 1.519531 -5.601562 2.132812 -5.765625 2.90625 -5.765625 C 3.289062 -5.765625 3.675781 -5.71875 4.0625 -5.625 C 4.457031 -5.539062 4.78125 -5.421875 5.03125 -5.265625 L 4.53125 -4.265625 C 4.039062 -4.546875 3.492188 -4.6875 2.890625 -4.6875 C 2.503906 -4.6875 2.207031 -4.625 2 -4.5 C 1.800781 -4.382812 1.703125 -4.234375 1.703125 -4.046875 C 1.703125 -3.828125 1.804688 -3.671875 2.015625 -3.578125 C 2.234375 -3.492188 2.570312 -3.414062 3.03125 -3.34375 C 3.488281 -3.269531 3.863281 -3.1875 4.15625 -3.09375 C 4.445312 -3 4.695312 -2.84375 4.90625 -2.625 C 5.113281 -2.40625 5.21875 -2.09375 5.21875 -1.6875 C 5.21875 -1.15625 4.984375 -0.726562 4.515625 -0.40625 C 4.054688 -0.0820312 3.429688 0.078125 2.640625 0.078125 Z M 2.640625 0.078125 "/></g></g></g><g fill="#5e1eb9" fill-opacity="1"><g transform="translate(90.743159, 10.173141)"><g><path d="M 1.296875 0.078125 C 1.054688 0.078125 0.847656 -0.00390625 0.671875 -0.171875 C 0.503906 -0.335938 0.421875 -0.550781 0.421875 -0.8125 C 0.421875 -1.070312 0.503906 -1.285156 0.671875 -1.453125 C 0.835938 -1.617188 1.046875 -1.703125 1.296875 -1.703125 C 1.546875 -1.703125 1.753906 -1.617188 1.921875 -1.453125 C 2.085938 -1.285156 2.171875 -1.070312 2.171875 -0.8125 C 2.171875 -0.550781 2.085938 -0.335938 1.921875 -0.171875 C 1.753906 -0.00390625 1.546875 0.078125 1.296875 0.078125 Z M 1.296875 0.078125 "/></g></g></g></g></g></svg>